<?xml version="1.0" encoding="utf-8" ?>
<svg xmlns="http://www.w3.org/2000/svg" xmlns:xlink="http://www.w3.org/1999/xlink" width="4041" height="2015">
	<path transform="scale(0.999941 0.999918)" d="M378.767 609.627C380.092 609.54 381.417 609.482 382.744 609.452C412.603 608.774 443.604 616.279 465.574 637.59C484.525 655.973 494.205 681.983 494.548 708.162C495.062 747.317 494.869 786.504 494.879 825.664L494.973 857.858C494.997 863.262 495.543 869.263 494.761 874.609C494.278 877.902 492.35 882.023 489.887 884.304C487.637 886.386 483.091 887.072 480.093 887.378C471.287 888.276 461.76 887.52 452.875 887.602C433.281 887.841 413.686 887.924 394.092 887.851C394.263 902.49 394.348 917.13 394.345 931.77L394.494 1050.34L394.609 1088.55C394.621 1095.39 395.1 1102.74 394.255 1109.51C393.825 1112.95 392.626 1115.78 390.121 1118.23C387.613 1120.67 383.03 1121.25 379.641 1121.57C370.811 1122.42 361.327 1121.65 352.409 1121.72L284.003 1121.83C283.909 1143.35 283.727 1164.93 284.156 1186.45C305.746 1187.16 327.672 1186.63 349.289 1186.52C358.069 1186.47 367.918 1185.45 376.559 1186.59C379.989 1187.05 383.311 1188.17 386.043 1190.34C389.443 1193.05 391.589 1197.22 391.994 1201.53C392.477 1206.69 391.919 1212.28 391.942 1217.49C392.012 1233.04 393.191 1246.37 382.683 1259.09C374.704 1268.75 362.933 1274.13 350.559 1275.16C329.591 1276.9 309.953 1274.2 293.489 1260.19C287.375 1254.99 284.443 1251.59 283.796 1243.43C285.069 1240.41 286.516 1237.7 289.172 1235.65C292.951 1232.74 297.281 1233.06 301.706 1233.67C313.729 1242.48 316.922 1249.56 333.482 1250.45C342.745 1250.95 353.969 1251.71 361.201 1244.91C369.536 1237.07 367.197 1221.95 367.355 1211.4L276.631 1211.45C271.9 1211.44 266.235 1211.17 262.78 1207.45C261.051 1205.57 259.904 1203.24 259.478 1200.72C258.021 1191.7 259.101 1181.06 259.142 1171.89L259.105 1121.45C251.258 1121.45 243.412 1121.51 235.566 1121.62C219.247 1121.83 204.92 1121.67 191.285 1111.48C180.072 1103.11 172.728 1091.69 170.759 1077.78C168.945 1064.96 170.01 1049.7 169.997 1036.67C169.986 1025.62 169.022 1013.57 170.341 1002.62C170.699 999.653 171.654 995.076 173.777 992.821C179.871 986.349 204.393 988.267 213.309 988.728L213.028 838.604C213.129 824.627 216.616 813.006 226.891 803.033C232.713 797.362 240.052 793.499 248.021 791.909C260.263 789.404 284.238 790.772 297.918 790.697C331.592 790.512 365.356 790.011 399.023 790.624L398.952 756.775C398.942 751.446 398.459 745.581 399.165 740.319C399.367 738.815 399.966 737.523 400.871 736.308C403.144 733.255 406.937 731.895 410.594 731.468C417.916 730.613 432.656 730.002 438.422 734.799C440.746 736.732 442.216 739.423 442.394 742.458C442.606 746.06 440.935 750.208 438.394 752.745C434.58 756.553 429.248 756.306 424.264 756.347C423.056 767.329 423.842 779.214 423.998 790.299C424.067 795.198 424.48 800.343 423.683 805.19C423.266 807.726 422.5 809.836 420.672 811.693C418.152 814.254 414.717 815.359 411.227 815.789C405.793 816.46 399.993 816.054 394.515 816.022C385.285 815.949 376.055 815.929 366.825 815.96L296.109 816.347C283.556 816.384 270.971 816.093 258.424 816.313C251.233 816.439 244.179 818.805 240.811 825.818C236.555 834.678 238.189 860.976 238.183 871.717L238.182 960.492C238.17 968.654 238.206 976.815 238.287 984.977C238.348 990.246 238.714 995.683 238.236 1000.92C237.991 1003.61 237.465 1007.32 235.469 1009.26C233.434 1011.23 230.4 1012.48 227.656 1013.05C220.975 1014.41 202.011 1013.84 194.781 1013.43C194.527 1024.1 194.794 1034.84 194.803 1045.52C194.811 1055.53 193.666 1067.15 195.942 1076.87C196.925 1081.07 198.697 1084.11 201.421 1087.38C204.918 1091.58 209.525 1095.1 214.933 1096.35C222.71 1098.14 238.458 1096.88 247.074 1096.92L327.849 1096.95C340.369 1096.93 356.214 1096.02 368.457 1097.13L368.927 1097.18C369.389 1083.04 369.037 1068.78 369.057 1054.63L368.999 981.963C357.45 981.694 345.863 981.874 334.31 981.853C316.044 981.819 297.22 983.08 283.137 969.13C269.953 956.071 271.97 940.387 272.059 923.352C272.107 914.115 271.888 904.885 271.886 895.651C271.885 890.086 272.514 884.205 276.794 880.165C283.918 873.438 303.602 876.081 312.968 876.138C312.929 873.11 312.682 869.844 313.181 866.851C313.731 863.544 315.149 860.199 318.046 858.309C322.117 855.653 326.878 856.565 331.297 857.551C331.666 857.879 332.033 858.209 332.398 858.541C336.028 861.842 337.8 864.698 338.005 869.75C338.325 877.649 339.746 890.786 333.932 896.794C332.206 898.577 329.996 899.751 327.596 900.347C320.467 902.117 305.402 900.894 297.169 901.045C296.963 907.789 296.48 942.306 298.347 946.722C300.499 951.814 304.651 954.414 309.486 956.518L369.03 956.542C369.125 939.964 369.122 923.385 369.019 906.807C368.999 898.357 368.091 888.695 369.644 880.409C370.437 876.179 372.192 871.969 375.219 868.841C378.092 865.872 381.95 864.29 385.94 863.488C395.927 861.481 407.442 862.497 417.616 862.506L468.334 862.493C469.898 853.879 469.112 844.32 469.109 835.563L469.088 790.649L469.14 736.367C469.151 726.267 469.64 715.88 468.77 705.817C467.931 696.122 465.889 686.385 462.137 677.381C455.486 661.447 442.734 648.837 426.725 642.366C398.232 630.632 354.724 637.243 326.883 649.003C294.964 662.485 264.977 687.899 254.003 721.668C252.724 725.602 251.5 729.705 250.787 733.785C249.569 740.76 249.382 746.674 246.642 753.397C240.492 758.381 232.438 759.71 225.161 762.508C213.692 766.879 203.069 773.204 193.761 781.203C156.215 813.49 140.052 867.26 145.559 915.559C146.587 924.576 152.18 941.725 150.344 949.606C149.218 954.44 144.098 958.634 141.318 962.654C129.333 979.98 123.056 1001.07 121.518 1021.93C118.709 1060.05 131.148 1098.62 157.713 1126.36C162.122 1130.96 171.298 1136.1 173.669 1141.91C177.007 1150.09 175.633 1161 176.863 1169.77C181.656 1203.54 196.286 1235.14 218.928 1260.65C247.777 1293.66 294.344 1321.38 338.755 1324.3C362.129 1325.84 386.028 1321.4 403.962 1305.35C414.632 1295.8 421.658 1283.05 424.898 1269.17C428.544 1253.56 427.004 1235.85 427.005 1219.84L426.954 1150.39C426.931 1137.51 426.419 1124.43 427.079 1111.58L429.151 1108.29C431.105 1107.31 433.08 1106.25 435.241 1105.82C438.931 1105.08 442.962 1105.1 446.103 1107.42C449.467 1109.91 451.128 1114.06 451.549 1118.11C452.092 1123.34 451.603 1128.94 451.599 1134.21L451.637 1166.26L451.796 1229.34C451.818 1243.27 452.918 1257.81 450.332 1271.53C447.41 1287.04 441.34 1301.61 431.206 1313.81C411.483 1337.54 385.5 1347.13 355.422 1349.83C308.745 1354.02 259.134 1331.19 223.958 1301.66C184.833 1269.36 159.142 1223.64 151.895 1173.42C150.878 1166.83 150.439 1160.1 149.865 1153.45C121.593 1131.76 104.567 1096.62 98.7662 1062.1C97.3502 1053.67 96.0383 1044.67 95.833 1036.13C94.9546 1002.73 104.899 969.948 124.183 942.667C123.527 932.909 120.927 923.051 119.859 913.263C113.884 858.476 136.089 791.611 181.326 758.075C188.314 752.895 195.49 747.916 203.268 743.988C207.059 742.073 220.452 737.843 222.537 736.03C224.75 734.106 228.655 716.664 229.876 713.05C235.177 697.364 243.435 683.756 253.811 670.931C278.866 639.963 316.63 620.629 355.196 612.867C362.978 611.3 370.882 610.477 378.767 609.627Z"/>
	<path transform="scale(0.999941 0.999918)" d="M622.014 609.613C628.82 608.757 636.53 609.269 643.351 609.817C669.175 611.652 694.393 618.513 717.586 630.015C748.484 645.591 776.203 672.762 789.395 705.03C793.479 715.02 795.077 725.262 798.488 735.344L798.739 736.073C832.462 746.225 860.488 771.682 878.47 801.439C902.749 841.616 908.37 896.786 897.19 941.86C918.737 972.541 928.661 1009.89 925.183 1047.22C921.577 1088.8 904.087 1126.71 871.907 1153.85C871.463 1160.4 870.794 1166.93 869.903 1173.44C862.399 1228.39 833.11 1275.34 789.093 1308.67C751.221 1337.35 708.438 1352.35 660.705 1345.59C632.367 1341.71 606.732 1326.73 589.435 1303.95C569.188 1276.8 572.382 1254.74 572.389 1223.3C572.391 1213.66 571.204 1202.93 572.651 1193.44C573.533 1187.65 575.979 1183.74 581.452 1181.39C589.345 1177.98 600.292 1179.39 608.78 1179.41L660.693 1179.54C669.002 1179.55 678.323 1180.39 686.529 1179.25C689.543 1178.83 692.755 1177.75 695.177 1175.86C698.767 1173.06 701.001 1169.08 701.972 1164.67C703.937 1155.76 702.684 1142.35 702.644 1133.04L702.606 1058.59C702.581 1048.63 701.48 1030.47 703.041 1021.19C703.793 1016.72 706.658 1011.57 710.419 1008.94C712.773 1007.3 715.744 1005.86 718.602 1005.44C726.113 1004.32 780.832 1004.29 787.868 1005.66C791.086 1008.46 794.103 1011.33 794.599 1015.8C794.99 1019.34 793.924 1022.41 791.674 1025.14C790.407 1026.67 788.851 1027.94 786.913 1028.47C781.409 1030 775.056 1029.48 769.387 1029.47C756.071 1029.46 742.188 1028.36 728.955 1029.42L728.296 1029.48C726.721 1041.91 727.84 1057.96 727.855 1070.79L727.929 1151.75C728.013 1157.13 728.06 1162.52 727.286 1167.86C724.548 1186.75 710.323 1200.27 691.676 1203.41C680.708 1205.26 668.971 1204.41 657.853 1204.4C641.59 1204.37 625.216 1203.95 608.968 1204.44C606.115 1204.53 599.713 1203.58 597.489 1205.26C595.508 1210.54 596.42 1248.03 597.156 1255.79C597.545 1259.57 598.3 1263.31 599.411 1266.94C605.597 1287.69 618.572 1301.56 637.449 1311.71C662.382 1325.12 691.635 1324.57 718.154 1316.56C776.255 1299.02 825.515 1250.31 840.569 1191.12C842.712 1182.7 844.537 1173.97 845.474 1165.32C846.202 1158.61 844.649 1150.42 847.22 1144.12C850.228 1136.74 864.148 1126.59 869.939 1119.95C875.811 1113.22 880.656 1105.37 884.838 1097.51C903.815 1061.82 905.999 1013.43 888.402 976.803C886.172 972.161 883.745 967.39 880.861 963.115C875.715 955.486 872.383 953.94 869.45 944.425C879.916 919.887 878.748 877.847 872.009 852.296C862.936 817.892 840.852 784.295 808.728 767.631C804.538 765.457 800.041 763.231 795.552 761.74C790.3 759.995 784.165 759.079 779.421 756.163C770.771 750.846 773.144 740.799 771.231 732.414C764.278 701.933 744.25 676.621 717.991 660.226C687.855 641.41 640.234 630.52 605.223 638.817C572.951 646.464 555.832 673.223 552.357 704.929C550.942 717.84 551.882 731.631 551.863 744.656L551.601 800.416C551.629 807.452 553.699 818.848 549.654 824.936C548.095 827.282 545.761 828.67 543.016 829.194C539.117 829.961 535.074 829.07 531.858 826.734C529.345 824.875 527.635 822.234 527.175 819.134C526.53 814.771 526.928 809.961 526.939 805.54L526.983 780.917L527.007 735.375C526.994 716.442 526.357 697.819 530.915 679.258C533.62 668.245 540.454 655.385 547.395 646.54C566.6 622.065 592.163 613.214 622.014 609.613Z"/>
	<path transform="scale(0.999941 0.999918)" d="M580.441 990.616C583.127 990.43 585.381 990.365 587.975 991.273C591.097 992.366 593.443 994.37 594.812 997.408C598.286 1005.12 593.865 1016.82 591 1024.18C582.457 1046.01 565.57 1063.55 544.071 1072.91C537.417 1075.75 530.199 1077.05 523.659 1079.99C523.477 1080.07 523.297 1080.16 523.116 1080.24C522.237 1094.38 522.636 1108.84 522.602 1123C522.504 1150.51 522.613 1178.02 522.93 1205.53L522.951 1246.61C522.944 1257.78 522.289 1269.15 524.518 1280.15C527.947 1297.08 536.497 1313.49 547.777 1326.5C555.631 1335.55 564.936 1343.19 574.919 1349.78C581.463 1354.11 588.517 1358.24 595.432 1361.95C598.692 1363.7 602.325 1365.03 605.416 1367.04C607.297 1368.26 608.998 1369.71 610.325 1371.54C611.972 1373.8 612.358 1376.43 611.797 1379.14C611.082 1382.59 608.925 1386.8 605.781 1388.62C602.657 1390.42 598.83 1390.54 595.404 1389.64C588.605 1387.85 581.566 1383.27 575.481 1379.77C545.543 1362.55 527.663 1346.66 510.703 1316.09C501.672 1336.41 485.363 1353.04 467.753 1366.13C459.482 1372.61 434.259 1389.23 424.678 1390.12C421.624 1390.4 418.384 1389.77 416.017 1387.71C413.269 1385.32 411.899 1380.87 411.868 1377.33C411.838 1374.02 413.506 1371.01 415.924 1368.84C421.22 1364.08 429.197 1360.9 435.399 1357.3C447.497 1350.35 458.612 1341.82 468.451 1331.93C480.581 1319.68 489.889 1304.46 494.06 1287.63C497.754 1272.73 497.094 1257.42 497.087 1242.21L497.073 1204.97L497.004 1079.37C489.646 1078.7 482.582 1076.91 475.713 1074.18C461.73 1068.62 450.223 1059.44 440.291 1048.3C437.642 1045.33 434.806 1042.33 433.298 1038.58C431.978 1035.3 431.955 1031.89 433.456 1028.67C434.899 1025.54 437.561 1023.15 440.819 1022.05C444.014 1020.95 448.283 1021.05 451.251 1022.79C454.904 1024.94 457.516 1029.53 460.225 1032.75C466.389 1039.94 474.071 1045.67 482.718 1049.53C497.861 1056.3 516.41 1056.51 531.841 1050.48C549.713 1043.5 562.023 1029.54 568.126 1011.48C569.722 1006.75 570.083 1001.31 572.219 996.817C573.948 993.183 576.865 991.883 580.441 990.616Z"/>
	<path transform="scale(0.999941 0.999918)" d="M696.112 717.495C698.919 717.432 701.797 717.301 704.527 718.075C709.118 719.377 711.256 722.656 713.479 726.551C713.556 747.834 713.857 769.141 713.614 790.421C724.784 790.917 736.071 790.504 747.256 790.435C764.507 790.329 779.769 789.604 793.324 802.057C802.391 810.387 807.986 821.594 808.417 834.019C808.961 849.742 808.47 865.653 808.515 881.396C808.54 890.164 809.571 899.904 808.557 908.546C808.237 911.268 807.571 913.597 805.58 915.567C803.165 917.956 799.599 919.164 796.242 919.15C790.553 919.155 785.5 915.516 783.7 910.119C782.118 905.398 783.054 899.194 783.063 894.213L783.049 853.426C783.038 845.844 783.836 836.927 782.232 829.532C781.593 826.61 780.128 823.933 778.01 821.821C769.535 813.275 751.321 815.654 740.078 815.694C731.271 815.701 722.463 815.62 713.657 815.449C713.495 835.417 713.472 855.386 713.588 875.355C713.631 883.741 714.723 892.859 713.828 901.148C713.606 903.205 712.899 904.88 711.585 906.487C709.179 909.429 706.413 911.793 702.487 912.014C698.408 912.243 694.314 910.283 691.422 907.495C689.838 905.967 688.406 903.948 687.976 901.75C687.091 897.226 688.026 884.62 688.033 879.307L688.051 815.505L650.346 815.521C643.454 815.569 635.92 816.448 629.137 815.326C627.232 815.011 625.522 814.113 624.067 812.855C621.301 810.465 620.15 807.043 620.029 803.466C619.911 800.012 621.063 796.459 623.474 793.933C625.146 792.182 627.208 791.27 629.568 790.855C636.238 789.681 643.678 790.375 650.466 790.395L688.011 790.489C688.075 780.573 686.876 729.862 688.673 724.294C689.704 721.101 693.334 718.961 696.112 717.495Z"/>
	<path transform="scale(0.999941 0.999918)" d="M664.098 936.616C674.864 936.084 685.753 936.428 696.534 936.433L753.515 936.432L793.336 936.407C799.813 936.414 806.824 935.95 813.235 936.673C816.077 936.994 818.306 938.121 820.772 939.45L822.111 941.652C824.264 945.27 825.375 949.085 824.196 953.277C823.017 957.471 819.803 960.185 815.652 961.257C810.903 962.485 805.987 961.226 801.169 961.127C797.285 961.048 793.354 961.223 789.463 961.223L708.038 961.307C694.841 961.326 681.091 960.496 667.955 961.425C665.889 961.572 663.524 961.714 661.719 962.778C659.974 968.983 661.033 986.734 661.031 994.034L661.048 1062.17C661.007 1072.18 662.275 1091.25 660.635 1100.1C660.018 1103.43 658.603 1106.7 656.953 1109.64C652.032 1118.42 643.415 1126.06 633.557 1128.66C625.619 1130.76 599.748 1129.43 590.159 1129.44C585.825 1129.45 581.139 1130.15 576.867 1129.68C574.937 1129.48 573.082 1128.83 571.45 1127.78C568.598 1125.95 566.733 1122.88 566.162 1119.57C565.574 1116.16 566.272 1112.54 568.399 1109.77C569.774 1107.98 571.809 1106.72 573.971 1106.11C578.239 1104.92 583.064 1105.36 587.464 1105.4L610.676 1105.43C614.844 1105.45 619.386 1105.95 623.489 1105.27C628.706 1104.39 633.46 1100.95 635.287 1095.82C637.245 1090.34 636.111 1074.4 636.079 1067.9L636.081 995.085C636.067 984.916 634.966 968.904 636.343 959.332C636.939 955.191 638.338 951.276 640.843 947.896C646.716 939.971 654.869 937.84 664.098 936.616Z"/>
	<path fill="#13934C" transform="scale(0.999941 0.999918)" d="M628.554 856.977C634.405 857.684 638.454 862.757 642.315 866.862C647.096 871.944 649.202 874.445 648.997 881.49C648.633 881.944 648.259 882.389 647.873 882.824C638.389 893.564 627.661 903.532 617.541 913.683L567.441 964.119L533.337 998.554C527.074 1004.87 520.881 1011.76 514.022 1017.42C512.409 1018.75 510.33 1019.25 508.267 1019.31C506.253 1019.37 505.181 1018.56 503.619 1017.43C497.848 1013.24 492.784 1007.38 487.71 1002.34L459.336 974.107C454.633 969.34 441.484 958.514 439.834 952.845C439.055 950.169 439.639 947.454 441.024 945.083C442.989 941.718 453.491 929.937 456.873 929.321C459.16 928.904 462.047 930.231 463.888 931.464C468.42 934.497 472.375 939.194 476.226 943.035C483.418 950.164 490.533 957.369 497.572 964.649C500.301 967.473 503.449 971.551 506.839 973.469C510.61 975.602 514.436 969.897 516.911 967.355L581.697 901.877C590.579 892.768 599.509 883.705 608.488 874.69C613.458 869.683 618.326 864.413 623.626 859.763C625.17 858.408 626.586 857.575 628.554 856.977Z"/>
	<path fill="#EE4239" transform="scale(0.999941 0.999918)" d="M611.09 691.939C612.431 691.896 613.926 691.783 615.181 692.336C621.959 695.317 634.281 711.505 641.055 717.137C645.233 712.733 662.876 692.705 667.807 692.346C670.012 692.186 671.916 693.428 673.502 694.815C676.647 697.567 682.763 703.032 682.895 707.343C682.934 708.62 682.717 709.636 682.026 710.73C678.965 715.575 664.202 729.282 658.944 734.679C659.558 735.09 660.148 735.493 660.718 735.965C664.827 739.373 684.614 757.761 684.147 762.091C683.779 765.509 673.418 773.936 670.685 776.423C669.833 776.844 668.921 777.387 667.931 777.333C663.612 777.096 645.624 757.718 641.137 753.315C637.045 757.377 618.39 777.052 614.162 776.937C611.791 776.872 609.161 774.72 607.57 773.153C605.184 770.802 598.694 765.483 599.071 761.953C599.677 756.285 618.365 739.742 622.959 735.147C616.763 728.406 609.885 722.222 603.523 715.625C600.988 712.996 597.845 709.869 597.919 705.981C599.89 701.204 607.063 695.185 611.09 691.939Z"/>
	<path transform="scale(0.999941 0.999918)" d="M792.269 1148.56C793.92 1148.64 795.442 1148.9 797.001 1149.47C801.527 1151.16 803.562 1154.73 805.383 1158.9C801.344 1190.71 790.103 1221.44 768.621 1245.67C763.057 1252.07 756.82 1257.85 750.019 1262.92C736.79 1272.7 713.215 1284.65 696.625 1285.66C694.153 1285.59 691.966 1285.44 689.852 1284.03C686.683 1281.91 684.558 1278.55 684 1274.78C683.333 1270.43 684.844 1266.24 688.325 1263.49C692.623 1260.1 700.884 1259.46 706.149 1257.73C718.89 1253.53 730.183 1247.15 740.271 1238.3C758.873 1221.69 771.666 1199.55 776.777 1175.14C778.131 1168.69 778.465 1158.97 782.423 1153.61C784.923 1150.22 788.249 1149.16 792.269 1148.56Z"/>
	<path fill="#EE4239" transform="scale(0.999941 0.999918)" d="M775.676 1041.39C776.982 1041.5 778.009 1041.66 779.136 1042.36C784.227 1045.57 797.707 1060.39 803 1065.67C808.547 1060.6 822.7 1043.97 828.388 1042.12C829.937 1041.62 831.183 1042.04 832.516 1042.86C835.859 1044.91 843.08 1051.66 844.011 1055.37C843.052 1061.76 824.975 1077.27 819.763 1082.34C824.89 1088.06 843.213 1103.72 843.921 1109.62C842.195 1114.1 835.224 1119.45 831.425 1122.48C830.79 1122.62 830.376 1122.76 829.733 1122.75C825.965 1122.69 807.529 1103.08 803.536 1099.19C798.391 1104.21 783.006 1121.47 777.426 1122.96C776.017 1122.76 775.006 1122.45 773.82 1121.63C771.181 1119.82 762.726 1112.06 762.543 1109.11C762.183 1103.3 781.327 1086.46 785.78 1082.03C779.531 1075.54 772.68 1069.48 766.696 1062.76C765.067 1060.92 762.187 1057.48 762.711 1054.8C763.538 1050.59 772.034 1043.47 775.676 1041.39Z"/>
	<path fill="#EE4239" transform="scale(0.999941 0.999918)" d="M317.817 681.91C326.652 681.613 337.452 700.041 345.35 704.734C350.76 699.545 361.435 686.738 367.267 683.763C369.3 682.727 371.481 682.491 373.634 683.297C378.539 685.133 384.239 692.315 386.277 696.975C381.453 704.571 368.785 714.935 362.129 722.149C367.49 727.527 379.398 737.355 383.102 743.104C384.221 744.842 384.816 746.786 384.322 748.841C383.201 753.507 376.271 759.312 372.272 761.766C372.104 761.781 371.938 761.806 371.77 761.811C370.403 761.854 368.962 761.616 367.764 760.93C361.537 757.361 350.607 744.877 345.197 739.499C339.682 745.166 326.053 760.174 319.223 762.327C317.175 762.176 315.957 761.086 314.506 759.731C311.992 757.382 304.561 751.215 304.838 747.891C305.279 742.588 323.834 726.492 328.317 721.801C321.135 714.72 312.603 707.609 306.416 699.68C305.345 698.308 304.568 697.229 304.895 695.414C305.752 690.647 313.941 684.452 317.817 681.91Z"/>
	<path fill="#EE4239" transform="scale(0.999941 0.999918)" d="M265.221 1007.05C270.535 1008.48 286.871 1026.58 291.51 1031.38C294.595 1027.61 312.915 1008.45 316.421 1007.75C317.788 1007.48 319.173 1008.18 320.297 1008.93C323.758 1011.21 330.672 1017.67 330.953 1021.96C330.972 1022.23 330.98 1023.33 330.841 1023.68C329.967 1025.9 310.816 1044.15 307.721 1047.37C313.583 1052.97 326.134 1063.75 330.201 1069.86C330.977 1071.03 331.179 1071.94 330.804 1073.3C329.6 1077.71 321.854 1084.38 317.931 1086.69C317.664 1086.7 317.397 1086.72 317.13 1086.72C311.511 1086.56 296.096 1068.6 291.458 1063.77C286.48 1068.7 270.987 1085.96 265.575 1087.6C263.873 1087.25 262.625 1086.27 261.354 1085.14C258.073 1082.21 252.243 1077.56 252.083 1072.81C252.037 1071.44 252.456 1070.25 253.223 1069.12C257.822 1062.35 268.634 1053.68 274.669 1047.29C269.405 1041.74 254.896 1029.45 252.004 1023.66C251.342 1022.33 251.29 1021.29 251.835 1019.91C253.571 1015.51 261.021 1009.09 265.221 1007.05Z"/>
	<path transform="scale(0.999941 0.999918)" d="M2654.79 812.229C2688.76 810.896 2740.16 810.507 2767.27 833.401C2784.07 847.592 2789.95 869.347 2791.43 890.476C2793.46 919.265 2793.91 955.999 2773.82 978.884C2745.19 1011.49 2686.49 1000 2647.6 1002.5L2647.57 1026.3L2647.48 1125.25L2612.84 1125.66C2611.27 1089.77 2611.81 1053.65 2611.07 1017.72C2609.04 949.568 2608.41 881.382 2609.17 813.204C2624.38 812.973 2639.59 812.648 2654.79 812.229ZM2646.64 968.156C2676.34 968.649 2714.7 972.678 2740.22 954.975C2755.34 939.588 2754.26 921.361 2754.16 901.095C2754.09 888.181 2752.01 874.23 2742.44 864.691C2722.19 844.506 2673.75 853.606 2646.76 850.71C2646.5 889.858 2646.47 929.007 2646.64 968.156Z"/>
	<path transform="scale(0.999941 0.999918)" d="M3467.93 813.373C3484.19 812.858 3500.56 813.276 3516.84 813.22C3550.82 813.103 3594.01 809.339 3620.74 834.66C3638.79 851.759 3641.97 877.58 3642.56 901.174C3643.24 927.673 3643.24 958.497 3623.5 978.841C3594.7 1008.52 3541.12 1000.96 3503.56 1001.37C3502.14 1001.37 3501.16 1001.3 3499.87 1001.96C3497.98 1002.93 3498.59 1008.46 3498.79 1010.35C3500.94 1030.94 3503.09 1105.31 3497.31 1123.15C3492.48 1127.78 3466.55 1125.63 3459.13 1125.67C3467.83 1111.18 3461.38 850.524 3459.63 815.271C3461.72 813.461 3465.19 813.706 3467.93 813.373ZM3496.66 850.854C3501.04 867.632 3502.98 952.586 3495.82 965.578C3514.13 965.988 3568.96 969.05 3581.92 959.299C3589.5 956.909 3596.08 949.685 3599.63 942.785C3608.55 925.447 3608.47 895.359 3602.52 877.128C3599.79 868.767 3595.32 862.056 3587.36 858.033C3565.31 846.874 3533.77 848.977 3509.5 850.004C3505.22 850.329 3500.94 850.721 3496.66 850.854Z"/>
	<path transform="scale(0.999941 0.999918)" d="M2167.87 813.142L2209.56 813.385C2223.68 862.129 2243.05 910.446 2261.58 957.737L2312.15 813.144L2352.56 813.362L2352.75 1125.69C2340.97 1125.39 2329.26 1125.76 2317.49 1126.15L2315.1 975.654C2315.29 950.953 2315.28 926.251 2315.05 901.55C2301.98 939.25 2285.48 975.978 2270.17 1012.81L2250.7 1013.15C2241.99 991.101 2232.51 969.396 2223.33 947.542C2217.16 932.853 2211.51 917.81 2204.75 903.386C2206.54 977.378 2206.09 1051.41 2203.41 1125.37C2192.13 1125.22 2180.8 1125.52 2169.52 1125.65L2167.87 813.142Z"/>
	<path transform="scale(0.999941 0.999918)" d="M3306.22 814.517C3319.92 813.483 3333.78 813.933 3347.51 814.033C3348.89 815.48 3350.25 816.801 3351.12 818.628C3357.51 831.972 3363.33 863.022 3367.6 879.209C3378.56 921.279 3390.13 963.19 3402.28 1004.93C3406.92 1021.01 3436.5 1114.72 3433.94 1121.65C3425.81 1128.51 3407.47 1126.35 3397.19 1126.05C3397.91 1124.65 3398.36 1123.45 3398.31 1121.84C3398.04 1109.37 3378.99 1043.73 3371.79 1036.12C3365 1035.82 3358.11 1036.1 3351.31 1036.12L3278.33 1036.38C3278.33 1036.67 3278.35 1036.96 3278.35 1037.24C3278.28 1050.6 3261.51 1116.57 3253.16 1125.36C3245.45 1126.58 3233.61 1127.89 3226.54 1124.34C3223.52 1119.06 3227.3 1105.1 3228.5 1099.19C3234.33 1070.53 3243.2 1042.09 3250.62 1013.78C3262.23 969.478 3273.24 924.948 3285.38 880.797C3289.32 866.5 3294.41 852.309 3297.86 837.912C3299.6 830.638 3300.53 823.047 3301.69 815.651L3306.22 814.517ZM3285.53 1002.84L3328.41 1003.18C3340.41 1003.24 3352.51 1003.02 3364.49 1003.56C3365 1000.34 3364.87 997.841 3364.23 994.678C3359.74 972.473 3351.88 950.744 3345.58 928.991C3339.78 908.959 3336.07 886.594 3326.9 867.857C3325.79 867.051 3325.02 866.495 3323.72 866.031C3322.31 883.039 3294.96 994.054 3285.53 1002.84Z"/>
	<path transform="scale(0.999941 0.999918)" d="M1655.2 904.695C1660.29 904.447 1665.4 904.295 1670.5 904.239C1692.78 904.077 1715.96 908.149 1732.34 924.536C1741.2 933.395 1746.41 944.828 1749.3 956.891C1755.56 983.034 1753.45 1012.16 1753.48 1038.91L1754.05 1125.52L1716.86 1125.67L1716.82 1100.59C1708.71 1111.96 1697.56 1120.82 1684.66 1126.15C1664.3 1134.73 1638.08 1136.46 1617.45 1127.81C1600.19 1120.58 1589.44 1105.81 1582.59 1088.92C1580.42 1080.19 1578.94 1071.34 1579.08 1062.32C1579.32 1047.01 1585.07 1033.06 1596.14 1022.41C1626.84 992.88 1677.11 998.631 1716.17 999.48C1715.87 986.219 1716.04 972.766 1710.73 960.339C1706.42 950.265 1698.94 942.801 1688.62 938.913C1674.8 933.707 1656.37 934.441 1643.1 940.966C1630.67 947.076 1625.65 955.777 1621.1 968.3L1582.92 968.3C1586.13 956.058 1590.05 944.325 1597.6 934.004C1611.46 915.064 1632.94 908.266 1655.2 904.695ZM1681.05 1095C1696.17 1086.5 1707.28 1077.88 1712.11 1060.51C1714.81 1050.82 1715.2 1040.4 1715.71 1030.4C1693.53 1030.2 1671.35 1030.23 1649.17 1030.5C1637.8 1033.61 1628.01 1037.7 1621.71 1048.48C1617.05 1056.61 1615.99 1066.32 1618.77 1075.27C1621.54 1084.1 1627.8 1090.85 1636.09 1094.83C1650.34 1101.66 1666.52 1099.62 1681.05 1095Z"/>
	<path transform="scale(0.999941 0.999918)" d="M1445.45 904.816C1452.35 904.517 1459.25 904.334 1466.16 904.265C1488.04 904.125 1508.93 910.596 1524.63 926.317C1550.57 952.298 1549.85 989.12 1549.6 1023.26C1503.51 1023.49 1457.42 1023.49 1411.34 1023.24C1411.07 1041.17 1411.41 1060.75 1420.24 1076.89C1426.22 1087.82 1436.81 1095.59 1448.68 1098.99C1462.44 1102.94 1478.66 1101.13 1491.1 1093.98C1505.58 1085.65 1508.55 1073.94 1512.52 1059.1C1524.82 1057.55 1537.15 1058.07 1549.51 1058.34C1547.48 1073.33 1544.99 1088.14 1536.37 1100.93C1524.68 1118.25 1504.3 1127.71 1484.27 1131.37C1459.53 1135.9 1431.37 1132.85 1410.33 1118.24C1392.68 1105.97 1382.42 1087.88 1378.81 1066.92C1374.05 1039.34 1373.63 990.755 1380.1 963.414C1382.52 953.179 1386.67 943.368 1392.85 934.826C1405.14 917.843 1425.07 908.025 1445.45 904.816ZM1411.5 994.903L1472.13 995.016C1485.71 994.986 1499.37 994.676 1512.94 995.141C1511.53 977.572 1510.65 958.051 1496.34 945.505C1484.93 935.513 1468.99 934.61 1454.59 935.67C1440.83 939.345 1428.39 943.652 1420.63 956.702C1413.87 968.079 1412.71 982.009 1411.5 994.903Z"/>
	<path transform="scale(0.999941 0.999918)" d="M2475.14 807.649C2480.9 807.525 2486.68 807.365 2492.44 807.479C2514.5 807.913 2539.34 812.669 2555.18 829.342C2575.22 850.447 2572.26 882.257 2571.73 909.049L2534.56 909.156C2535.2 893.771 2537.14 870.525 2525.66 858.264C2516.3 848.276 2501.29 845.976 2488.26 845.582C2471.97 845.09 2451.94 847.142 2439.74 859.255C2424.19 874.705 2426.93 939.57 2426.85 962.996C2426.76 989.768 2422.63 1064.32 2441.06 1081.9C2451.68 1092.03 2468.16 1094.18 2482.2 1094.11C2498.83 1094.02 2516.15 1091.21 2528.24 1078.99C2535.39 1067.91 2534.62 1055.68 2534.68 1043.08L2577.43 1042.71C2575.68 1066.16 2574.05 1092.14 2556.98 1110.13C2539.1 1128.97 2511.84 1133.07 2487.07 1133.6C2462.24 1134.13 2433.85 1130.73 2415.23 1112.56C2381.33 1079.44 2390.3 1018.35 2391.06 975.397C2391.39 956.201 2390.13 936.973 2389.93 917.776C2389.65 888.808 2389.25 854.261 2411.12 832.298C2427.85 815.497 2451.9 807.805 2475.14 807.649Z"/>
	<path transform="scale(0.999941 0.999918)" d="M3679.62 813.373C3693.71 811.923 3831.61 812.572 3835.19 814.673C3837.21 815.861 3838.07 820.448 3838.31 822.608C3839.19 830.443 3838.86 841.81 3833.79 848.103C3813.81 847.53 3791.1 846.148 3771.36 848.747C3772.9 851.996 3773.52 855.372 3773.8 858.934C3774.58 868.394 3774.03 878.233 3774.26 887.749C3774.96 917.152 3774.99 946.525 3775.26 975.931C3775.58 1010.02 3779.95 1058.84 3774.25 1091.19C3774.18 1091.57 3774.1 1091.95 3774.03 1092.32C3792.6 1092.39 3816.61 1089.83 3834.41 1092.88C3835.86 1094.2 3836.27 1094.36 3837.02 1096.32C3839.35 1102.49 3839.9 1116.13 3836.86 1121.88C3835.24 1124.93 3833.31 1125.36 3830.33 1126.49C3778.5 1127.75 3726.67 1126.62 3674.84 1127.42C3675.5 1126.14 3676.08 1124.97 3676.46 1123.57C3678.76 1114.79 3678.62 1101.26 3674.43 1093.12C3688.24 1092.28 3726.29 1094.57 3736.33 1092.01L3735.84 1088.94L3737.02 1089.78C3741.32 1060.86 3738.53 1029.69 3738.6 1000.4C3738.69 955.435 3740.56 909.445 3737.95 864.597C3737.64 859.267 3737.5 854.092 3735.35 849.13C3728.65 844.338 3685.54 847.669 3675.14 848.094C3679.29 837.533 3676.78 825.74 3676.66 814.67L3679.62 813.373Z"/>
	<path transform="scale(0.999941 0.999918)" d="M2058.24 904.922C2058.5 904.919 2058.77 904.91 2059.03 904.912C2078.65 905.08 2098.68 909.504 2112.96 923.803C2121.99 932.848 2127.42 944.644 2130.14 957.026C2135.25 980.364 2132.76 1005.87 2132.61 1029.63L2132.34 1125.32L2094.95 1125.41C2094.69 1103.21 2094.68 1081.02 2094.93 1058.82C2095.24 1031.4 2099.98 981.819 2088.74 957.249C2084.86 948.761 2078.31 941.889 2069.33 938.912C2056.4 934.631 2038.88 938.469 2027 944.46C2024.78 945.994 2022.64 947.58 2020.76 949.535C2012.35 958.3 2007.86 970.263 2005.37 981.96C1999.99 1007.17 2001.9 1033.81 2002.25 1059.44L2002.67 1125.29C1990.87 1125.21 1979.06 1125.42 1967.26 1125.51C1966.54 1053.39 1966.47 981.271 1967.07 909.156L2000.59 909.156C2001.41 916.803 2001.84 924.506 2002.39 932.18C2003.13 931.331 2003.87 930.483 2004.64 929.659C2019.64 913.54 2036.19 905.885 2058.24 904.922Z"/>
	<path transform="scale(0.999941 0.999918)" d="M3029.84 911.628C3042.02 910.898 3054.38 911.219 3066.6 911.17C3068.97 912.755 3070.74 914.127 3072.49 916.398C3081.14 927.623 3111.3 974.495 3109.74 986.516C3111.2 985.615 3112.26 984.582 3113.36 983.282C3121.16 974.042 3152.17 922.33 3151.4 912.161C3165.46 910.935 3179.62 911.364 3193.7 911.828C3193.9 913.091 3194.01 913.22 3193.76 914.688C3192.34 923.308 3140.47 1006.35 3132.78 1012.09C3133.69 1012.86 3134.54 1013.6 3135.35 1014.48C3145.76 1025.59 3201.76 1113.02 3201.29 1125.27L3184.17 1125.33L3161.13 1125.25C3161.29 1124.12 3161.42 1123.92 3161.16 1122.75C3159.38 1114.61 3115.69 1047.73 3108.05 1042.27C3107.98 1042.77 3107.92 1043.28 3107.84 1043.78C3105.6 1057.47 3069.65 1116.58 3058.57 1124.61C3046.48 1126.41 3033.12 1125.04 3020.93 1124.71C3029.86 1108.99 3088.2 1022.89 3087.35 1011.39C3089.45 992.361 3027.03 929.051 3029.84 911.628Z"/>
	<path transform="scale(0.999941 0.999918)" d="M1184.85 813.144L1219.8 813.371L1219.65 1090.9L1350.69 1090.79C1350.75 1102.19 1351.45 1113.99 1350.27 1125.33C1295.1 1124.45 1239.99 1125.11 1184.82 1125.41C1183.91 1088.06 1184.53 1050.69 1184.53 1013.33L1184.85 813.144Z"/>
	<path transform="scale(0.999941 0.999918)" d="M1890.61 904.834C1904.03 904.227 1915.64 905.496 1928.65 908.731L1928.55 940.667C1920.45 939.955 1912.34 939.533 1904.22 939.398C1887.37 939.196 1867.2 941.536 1854.84 954.316C1827.52 982.57 1836.37 1088.71 1836.93 1126.13C1827.14 1126.2 1817.34 1126.1 1807.55 1125.82C1805.53 1125.7 1803.59 1125.45 1801.58 1125.18C1798.95 1120.18 1800.45 1082.12 1800.43 1073.97C1800.38 1019.01 1799.09 964.059 1796.55 909.156L1831.61 909.156L1831.52 940.664C1833.79 936.467 1836.32 932.205 1839.29 928.46C1851.67 912.895 1871.64 907.005 1890.61 904.834Z"/>
	<path transform="scale(0.999941 0.999918)" d="M2820.97 969.628C2879.3 971.289 2937.57 970.037 2995.91 969.983L2995.64 1004.11C2974.67 1006.19 2952.88 1005.19 2931.81 1005.17C2894.74 1005.27 2857.66 1004.9 2820.6 1004.06L2820.97 969.628Z"/>
</svg>
