<?xml version="1.0" encoding="utf-8" ?>
<svg xmlns="http://www.w3.org/2000/svg" xmlns:xlink="http://www.w3.org/1999/xlink" width="1024" height="1024">
	<path d="M378.767 114.21C380.092 114.123 381.417 114.065 382.744 114.035C412.603 113.357 443.604 120.862 465.574 142.173C484.525 160.556 494.205 186.566 494.548 212.745C495.062 251.9 494.869 291.087 494.879 330.247L494.973 362.441C494.997 367.845 495.543 373.846 494.761 379.192C494.278 382.485 492.35 386.606 489.887 388.887C487.637 390.969 483.091 391.655 480.093 391.961C471.287 392.859 461.76 392.103 452.875 392.185C433.281 392.424 413.686 392.507 394.092 392.434C394.263 407.073 394.348 421.713 394.345 436.353L394.494 554.924L394.609 593.129C394.621 599.977 395.1 607.325 394.255 614.097C393.825 617.537 392.626 620.368 390.121 622.811C387.613 625.257 383.03 625.833 379.641 626.157C370.811 627 361.327 626.236 352.409 626.307L284.003 626.413C283.909 647.931 283.727 669.515 284.156 691.028C305.746 691.746 327.672 691.211 349.289 691.098C358.069 691.052 367.918 690.036 376.559 691.176C379.989 691.629 383.311 692.751 386.043 694.925C389.443 697.631 391.589 701.8 391.994 706.118C392.477 711.272 391.919 716.859 391.942 722.077C392.012 737.626 393.191 750.954 382.683 763.676C374.704 773.336 362.933 778.71 350.559 779.738C329.591 781.48 309.953 778.787 293.489 764.777C287.375 759.574 284.443 756.177 283.796 748.016C285.069 744.988 286.516 742.278 289.172 740.233C292.951 737.322 297.281 737.64 301.706 738.257C313.729 747.067 316.922 754.139 333.482 755.033C342.745 755.534 353.969 756.29 361.201 749.491C369.536 741.656 367.197 726.536 367.355 715.985L276.631 716.032C271.9 716.023 266.235 715.752 262.78 712.033C261.051 710.158 259.904 707.822 259.478 705.308C258.021 696.284 259.101 685.645 259.142 676.474L259.105 626.029C251.258 626.029 243.412 626.088 235.566 626.205C219.247 626.414 204.92 626.248 191.285 616.067C180.072 607.694 172.728 596.272 170.759 582.361C168.945 569.541 170.01 554.287 169.997 541.252C169.986 530.204 169.022 518.149 170.341 507.203C170.699 504.236 171.654 499.659 173.777 497.404C179.871 490.932 204.393 492.85 213.309 493.311L213.028 343.187C213.129 329.21 216.616 317.589 226.891 307.616C232.713 301.945 240.052 298.082 248.021 296.492C260.263 293.987 284.238 295.355 297.918 295.28C331.592 295.095 365.356 294.594 399.023 295.207L398.952 261.358C398.942 256.029 398.459 250.164 399.165 244.902C399.367 243.398 399.966 242.106 400.871 240.891C403.144 237.838 406.937 236.478 410.594 236.051C417.916 235.196 432.656 234.585 438.422 239.382C440.746 241.315 442.216 244.006 442.394 247.041C442.606 250.643 440.935 254.791 438.394 257.328C434.58 261.136 429.248 260.889 424.264 260.93C423.056 271.912 423.842 283.797 423.998 294.882C424.067 299.781 424.48 304.926 423.683 309.773C423.266 312.309 422.5 314.419 420.672 316.276C418.152 318.837 414.717 319.942 411.227 320.372C405.793 321.043 399.993 320.637 394.515 320.605C385.285 320.532 376.055 320.512 366.825 320.543L296.109 320.93C283.556 320.967 270.971 320.676 258.424 320.896C251.233 321.022 244.179 323.388 240.811 330.401C236.555 339.261 238.189 365.559 238.183 376.3L238.182 465.075C238.17 473.237 238.206 481.398 238.287 489.56C238.348 494.829 238.714 500.266 238.236 505.508C237.991 508.189 237.465 511.901 235.469 513.84C233.434 515.818 230.4 517.068 227.656 517.63C220.975 518.998 202.011 518.423 194.781 518.015C194.527 528.68 194.794 539.425 194.803 550.098C194.811 560.114 193.666 571.731 195.942 581.456C196.925 585.656 198.697 588.692 201.421 591.966C204.918 596.168 209.525 599.683 214.933 600.929C222.71 602.722 238.458 601.461 247.074 601.503L327.849 601.537C340.369 601.517 356.214 600.602 368.457 601.714L368.927 601.761C369.389 587.627 369.037 573.362 369.057 559.213L368.999 486.546C357.45 486.277 345.863 486.457 334.31 486.436C316.044 486.402 297.22 487.663 283.137 473.713C269.953 460.654 271.97 444.97 272.059 427.935C272.107 418.698 271.888 409.468 271.886 400.234C271.885 394.669 272.514 388.788 276.794 384.748C283.918 378.021 303.602 380.664 312.968 380.721C312.929 377.693 312.682 374.427 313.181 371.434C313.731 368.127 315.149 364.782 318.046 362.892C322.117 360.236 326.878 361.148 331.297 362.134C331.666 362.462 332.033 362.792 332.398 363.124C336.028 366.425 337.8 369.281 338.005 374.333C338.325 382.232 339.746 395.369 333.932 401.377C332.206 403.16 329.996 404.334 327.596 404.93C320.467 406.7 305.402 405.477 297.169 405.628C296.963 412.372 296.48 446.889 298.347 451.305C300.499 456.397 304.651 458.997 309.486 461.101L369.03 461.125C369.125 444.547 369.122 427.968 369.019 411.39C368.999 402.94 368.091 393.278 369.644 384.992C370.437 380.762 372.192 376.552 375.219 373.424C378.092 370.455 381.95 368.873 385.94 368.071C395.927 366.064 407.442 367.08 417.616 367.089L468.334 367.076C469.898 358.462 469.112 348.903 469.109 340.146L469.088 295.232L469.14 240.95C469.151 230.85 469.64 220.463 468.77 210.4C467.931 200.705 465.889 190.968 462.137 181.964C455.486 166.03 442.734 153.42 426.725 146.949C398.232 135.215 354.724 141.826 326.883 153.586C294.964 167.068 264.977 192.482 254.003 226.251C252.724 230.185 251.5 234.288 250.787 238.368C249.569 245.343 249.382 251.257 246.642 257.98C240.492 262.964 232.438 264.293 225.161 267.091C213.692 271.462 203.069 277.787 193.761 285.786C156.215 318.073 140.052 371.843 145.559 420.142C146.587 429.159 152.18 446.308 150.344 454.189C149.218 459.023 144.098 463.217 141.318 467.237C129.333 484.563 123.056 505.65 121.518 526.516C118.709 564.633 131.148 603.202 157.713 630.943C162.122 635.548 171.298 640.688 173.669 646.496C177.007 654.674 175.633 665.587 176.863 674.352C181.656 708.119 196.286 739.727 218.928 765.233C247.777 798.238 294.344 825.966 338.755 828.883C362.129 830.419 386.028 825.983 403.962 809.936C414.632 800.388 421.658 787.638 424.898 773.756C428.544 758.14 427.004 740.432 427.005 724.419L426.954 654.972C426.931 642.097 426.419 629.016 427.079 616.162L429.151 612.872C431.105 611.893 433.08 610.83 435.241 610.4C438.931 609.666 442.962 609.679 446.103 612.002C449.467 614.49 451.128 618.643 451.549 622.698C452.092 627.927 451.603 633.522 451.599 638.794L451.637 670.847L451.796 733.922C451.818 747.851 452.918 762.394 450.332 776.114C447.41 791.625 441.34 806.196 431.206 818.391C411.483 842.125 385.5 851.715 355.422 854.413C308.745 858.601 259.134 835.768 223.958 806.244C184.833 773.939 159.142 728.22 151.895 678.002C150.878 671.409 150.439 664.679 149.865 658.033C121.593 636.342 104.567 601.208 98.7662 566.68C97.3502 558.251 96.0383 549.252 95.833 540.711C94.9546 507.315 104.899 474.531 124.183 447.25C123.527 437.492 120.927 427.634 119.859 417.846C113.884 363.059 136.089 296.194 181.326 262.658C188.314 257.478 195.49 252.499 203.268 248.571C207.059 246.656 220.452 242.426 222.537 240.613C224.75 238.689 228.655 221.247 229.876 217.633C235.177 201.947 243.435 188.339 253.811 175.514C278.866 144.546 316.63 125.212 355.196 117.45C362.978 115.883 370.882 115.06 378.767 114.21Z"/>
	<path d="M622.014 114.196C628.82 113.34 636.53 113.852 643.351 114.4C669.175 116.235 694.393 123.096 717.586 134.598C748.484 150.174 776.203 177.345 789.395 209.613C793.479 219.603 795.077 229.845 798.488 239.927L798.739 240.656C832.462 250.808 860.488 276.265 878.47 306.022C902.749 346.199 908.37 401.369 897.19 446.443C918.737 477.124 928.661 514.473 925.183 551.802C921.577 593.382 904.087 631.29 871.907 658.431C871.463 664.982 870.794 671.517 869.903 678.022C862.399 732.97 833.11 779.922 789.093 813.253C751.221 841.93 708.438 856.931 660.705 850.174C632.367 846.289 606.732 831.31 589.435 808.531C569.188 781.387 572.382 759.321 572.389 727.888C572.391 718.245 571.204 707.514 572.651 698.018C573.533 692.234 575.979 688.326 581.452 685.969C589.345 682.568 600.292 683.974 608.78 683.991L660.693 684.119C669.002 684.136 678.323 684.977 686.529 683.83C689.543 683.409 692.755 682.331 695.177 680.441C698.767 677.641 701.001 673.661 701.972 669.256C703.937 660.338 702.684 646.935 702.644 637.621L702.606 563.171C702.581 553.215 701.48 535.052 703.041 525.775C703.793 521.302 706.658 516.148 710.419 513.525C712.773 511.882 715.744 510.445 718.602 510.021C726.113 508.908 780.832 508.877 787.868 510.244C791.086 513.045 794.103 515.91 794.599 520.387C794.99 523.926 793.924 526.991 791.674 529.719C790.407 531.256 788.851 532.518 786.913 533.055C781.409 534.579 775.056 534.059 769.387 534.055C756.071 534.046 742.188 532.942 728.955 534.003L728.296 534.062C726.721 546.489 727.84 562.539 727.855 575.374L727.929 656.335C728.013 661.717 728.06 667.103 727.286 672.442C724.548 691.334 710.323 704.853 691.676 707.995C680.708 709.843 668.971 708.995 657.853 708.978C641.59 708.953 625.216 708.529 608.968 709.022C606.115 709.109 599.713 708.168 597.489 709.844C595.508 715.128 596.42 752.613 597.156 760.376C597.545 764.156 598.3 767.89 599.411 771.525C605.597 792.27 618.572 806.142 637.449 816.293C662.382 829.701 691.635 829.149 718.154 821.142C776.255 803.601 825.515 754.89 840.569 695.707C842.712 687.283 844.537 678.55 845.474 669.904C846.202 663.189 844.649 655.007 847.22 648.699C850.228 641.32 864.148 631.169 869.939 624.53C875.811 617.8 880.656 609.955 884.838 602.089C903.815 566.399 905.999 518.015 888.402 481.386C886.172 476.744 883.745 471.973 880.861 467.698C875.715 460.069 872.383 458.523 869.45 449.008C879.916 424.47 878.748 382.43 872.009 356.879C862.936 322.475 840.852 288.878 808.728 272.214C804.538 270.04 800.041 267.814 795.552 266.323C790.3 264.578 784.165 263.662 779.421 260.746C770.771 255.429 773.144 245.382 771.231 236.997C764.278 206.516 744.25 181.204 717.991 164.809C687.855 145.993 640.234 135.103 605.223 143.4C572.951 151.047 555.832 177.806 552.357 209.512C550.942 222.423 551.882 236.214 551.863 249.239L551.601 304.999C551.629 312.035 553.699 323.431 549.654 329.519C548.095 331.865 545.761 333.253 543.016 333.777C539.117 334.544 535.074 333.653 531.858 331.317C529.345 329.458 527.635 326.817 527.175 323.717C526.53 319.354 526.928 314.544 526.939 310.123L526.983 285.5L527.007 239.958C526.994 221.025 526.357 202.402 530.915 183.841C533.62 172.828 540.454 159.968 547.395 151.123C566.6 126.648 592.163 117.797 622.014 114.196Z"/>
	<path d="M580.441 495.199C583.127 495.013 585.381 494.948 587.975 495.856C591.097 496.949 593.443 498.953 594.812 501.991C598.286 509.7 593.865 521.405 591 528.759C582.457 550.594 565.57 568.129 544.071 577.488C537.417 580.332 530.199 581.631 523.659 584.574C523.477 584.656 523.297 584.743 523.116 584.827C522.237 598.96 522.636 613.42 522.602 627.586C522.504 655.095 522.613 682.604 522.93 710.111L522.951 751.192C522.944 762.36 522.289 773.736 524.518 784.736C527.947 801.66 536.497 818.076 547.777 831.08C555.631 840.133 564.936 847.773 574.919 854.368C581.463 858.691 588.517 862.825 595.432 866.531C598.692 868.278 602.325 869.61 605.416 871.621C607.297 872.845 608.998 874.298 610.325 876.121C611.972 878.381 612.358 881.011 611.797 883.721C611.082 887.17 608.925 891.382 605.781 893.2C602.657 895.005 598.83 895.121 595.404 894.221C588.605 892.435 581.566 887.849 575.481 884.35C545.543 867.136 527.663 851.24 510.703 820.676C501.672 840.99 485.363 857.622 467.753 870.711C459.482 877.198 434.259 893.809 424.678 894.702C421.624 894.986 418.384 894.348 416.017 892.292C413.269 889.904 411.899 885.454 411.868 881.915C411.838 878.603 413.506 875.595 415.924 873.421C421.22 868.66 429.197 865.481 435.399 861.883C447.497 854.934 458.612 846.4 468.451 836.508C480.581 824.264 489.889 809.04 494.06 792.214C497.754 777.312 497.094 762.007 497.087 746.79L497.073 709.558L497.004 583.953C489.646 583.286 482.582 581.492 475.713 578.763C461.73 573.207 450.223 564.024 440.291 552.883C437.642 549.912 434.806 546.916 433.298 543.168C431.978 539.884 431.955 536.477 433.456 533.249C434.899 530.128 437.561 527.737 440.819 526.637C444.014 525.528 448.283 525.632 451.251 527.374C454.904 529.52 457.516 534.109 460.225 537.329C466.389 544.518 474.071 550.251 482.718 554.112C497.861 560.88 516.41 561.091 531.841 555.062C549.713 548.079 562.023 534.128 568.126 516.061C569.722 511.337 570.083 505.89 572.219 501.4C573.948 497.766 576.865 496.466 580.441 495.199Z"/>
	<path d="M696.112 222.078C698.919 222.015 701.797 221.884 704.527 222.658C709.118 223.96 711.256 227.239 713.479 231.134C713.556 252.417 713.857 273.724 713.614 295.004C724.784 295.5 736.071 295.087 747.256 295.018C764.507 294.912 779.769 294.187 793.324 306.64C802.391 314.97 807.986 326.177 808.417 338.602C808.961 354.325 808.47 370.236 808.515 385.979C808.54 394.747 809.571 404.487 808.557 413.129C808.237 415.851 807.571 418.18 805.58 420.15C803.165 422.539 799.599 423.747 796.242 423.733C790.553 423.738 785.5 420.099 783.7 414.702C782.118 409.981 783.054 403.777 783.063 398.796L783.049 358.009C783.038 350.427 783.836 341.51 782.232 334.115C781.593 331.193 780.128 328.516 778.01 326.404C769.535 317.858 751.321 320.237 740.078 320.277C731.271 320.284 722.463 320.203 713.657 320.032C713.495 340 713.472 359.969 713.588 379.938C713.631 388.324 714.723 397.442 713.828 405.731C713.606 407.788 712.899 409.463 711.585 411.07C709.179 414.012 706.413 416.376 702.487 416.597C698.408 416.826 694.314 414.866 691.422 412.078C689.838 410.55 688.406 408.531 687.976 406.333C687.091 401.809 688.026 389.203 688.033 383.89L688.051 320.088L650.346 320.104C643.454 320.152 635.92 321.031 629.137 319.909C627.232 319.594 625.522 318.696 624.067 317.438C621.301 315.048 620.15 311.626 620.029 308.049C619.911 304.595 621.063 301.042 623.474 298.516C625.146 296.765 627.208 295.853 629.568 295.438C636.238 294.264 643.678 294.958 650.466 294.978L688.011 295.072C688.075 285.156 686.876 234.445 688.673 228.877C689.704 225.684 693.334 223.544 696.112 222.078Z"/>
	<path d="M664.098 441.199C674.864 440.667 685.753 441.011 696.534 441.016L753.515 441.015L793.336 440.99C799.813 440.997 806.824 440.533 813.235 441.256C816.077 441.577 818.306 442.704 820.772 444.033L822.111 446.235C824.264 449.853 825.375 453.668 824.196 457.86C823.017 462.054 819.803 464.768 815.652 465.84C810.903 467.068 805.987 465.809 801.169 465.71C797.285 465.631 793.354 465.806 789.463 465.806L708.038 465.89C694.841 465.909 681.091 465.079 667.955 466.008C665.889 466.155 663.524 466.297 661.719 467.361C659.974 473.566 661.033 491.317 661.031 498.617L661.048 566.75C661.007 576.765 662.275 595.834 660.635 604.68C660.018 608.009 658.603 611.282 656.953 614.226C652.032 623.003 643.415 630.641 633.557 633.242C625.619 635.338 599.748 634.008 590.159 634.024C585.825 634.031 581.139 634.733 576.867 634.264C574.937 634.062 573.082 633.411 571.45 632.362C568.598 630.532 566.733 627.463 566.162 624.151C565.574 620.743 566.272 617.124 568.399 614.357C569.774 612.568 571.809 611.301 573.971 610.697C578.239 609.505 583.064 609.94 587.464 609.98L610.676 610.016C614.844 610.036 619.386 610.536 623.489 609.848C628.706 608.973 633.46 605.529 635.287 600.407C637.245 594.92 636.111 578.984 636.079 572.483L636.081 499.668C636.067 489.499 634.966 473.487 636.343 463.915C636.939 459.774 638.338 455.859 640.843 452.479C646.716 444.554 654.869 442.423 664.098 441.199Z"/>
	<path fill="#13934C" d="M628.554 361.56C634.405 362.267 638.454 367.34 642.315 371.445C647.096 376.527 649.202 379.028 648.997 386.073C648.633 386.527 648.259 386.972 647.873 387.407C638.389 398.147 627.661 408.115 617.541 418.266L567.441 468.702L533.337 503.137C527.074 509.455 520.881 516.34 514.022 522.004C512.409 523.336 510.33 523.832 508.267 523.891C506.253 523.949 505.181 523.143 503.619 522.01C497.848 517.824 492.784 511.966 487.71 506.927L459.336 478.69C454.633 473.923 441.484 463.097 439.834 457.428C439.055 454.752 439.639 452.037 441.024 449.666C442.989 446.301 453.491 434.52 456.873 433.904C459.16 433.487 462.047 434.814 463.888 436.047C468.42 439.08 472.375 443.777 476.226 447.618C483.418 454.747 490.533 461.952 497.572 469.232C500.301 472.056 503.449 476.134 506.839 478.052C510.61 480.185 514.436 474.48 516.911 471.938L581.697 406.46C590.579 397.351 599.509 388.288 608.488 379.273C613.458 374.266 618.326 368.996 623.626 364.346C625.17 362.991 626.586 362.158 628.554 361.56Z"/>
	<path fill="#EE4239" d="M611.09 196.522C612.431 196.479 613.926 196.366 615.181 196.919C621.959 199.9 634.281 216.088 641.055 221.72C645.233 217.316 662.876 197.288 667.807 196.929C670.012 196.769 671.916 198.011 673.502 199.398C676.647 202.15 682.763 207.615 682.895 211.926C682.934 213.203 682.717 214.219 682.026 215.313C678.965 220.158 664.202 233.865 658.944 239.262C659.558 239.673 660.148 240.076 660.718 240.548C664.827 243.956 684.614 262.344 684.147 266.674C683.779 270.092 673.418 278.519 670.685 281.006C669.833 281.427 668.921 281.97 667.931 281.916C663.612 281.679 645.624 262.301 641.137 257.898C637.045 261.96 618.39 281.635 614.162 281.52C611.791 281.455 609.161 279.303 607.57 277.736C605.184 275.385 598.694 270.066 599.071 266.536C599.677 260.868 618.365 244.325 622.959 239.73C616.763 232.989 609.885 226.805 603.523 220.208C600.988 217.579 597.845 214.452 597.919 210.564C599.89 205.787 607.063 199.768 611.09 196.522Z"/>
	<path d="M792.269 653.144C793.92 653.227 795.442 653.479 797.001 654.058C801.527 655.74 803.562 659.31 805.383 663.479C801.344 695.292 790.103 726.019 768.621 750.254C763.057 756.654 756.82 762.438 750.019 767.504C736.79 777.282 713.215 789.23 696.625 790.247C694.153 790.177 691.966 790.023 689.852 788.612C686.683 786.493 684.558 783.134 684 779.362C683.333 775.014 684.844 770.821 688.325 768.074C692.623 764.683 700.884 764.046 706.149 762.31C718.89 758.109 730.183 751.731 740.271 742.883C758.873 726.27 771.666 704.138 776.777 679.727C778.131 673.272 778.465 663.556 782.423 658.189C784.923 654.8 788.249 653.738 792.269 653.144Z"/>
	<path fill="#EE4239" d="M775.676 545.971C776.982 546.081 778.009 546.238 779.136 546.948C784.227 550.154 797.707 564.976 803 570.25C808.547 565.186 822.7 548.549 828.388 546.705C829.937 546.203 831.183 546.628 832.516 547.444C835.859 549.492 843.08 556.239 844.011 559.955C843.052 566.346 824.975 581.858 819.763 586.927C824.89 592.642 843.213 608.303 843.921 614.201C842.195 618.681 835.224 624.035 831.425 627.061C830.79 627.203 830.376 627.342 829.733 627.331C825.965 627.268 807.529 607.662 803.536 603.768C798.391 608.798 783.006 626.05 777.426 627.543C776.017 627.342 775.006 627.033 773.82 626.216C771.181 624.399 762.726 616.644 762.543 613.697C762.183 607.879 781.327 591.039 785.78 586.614C779.531 580.119 772.68 574.068 766.696 567.338C765.067 565.506 762.187 562.059 762.711 559.388C763.538 555.178 772.034 548.055 775.676 545.971Z"/>
	<path fill="#EE4239" d="M317.817 186.493C326.652 186.196 337.452 204.624 345.35 209.317C350.76 204.128 361.435 191.321 367.267 188.346C369.3 187.31 371.481 187.074 373.634 187.88C378.539 189.716 384.239 196.898 386.277 201.558C381.453 209.154 368.785 219.518 362.129 226.732C367.49 232.11 379.398 241.938 383.102 247.687C384.221 249.425 384.816 251.369 384.322 253.424C383.201 258.09 376.271 263.895 372.272 266.349C372.104 266.364 371.938 266.389 371.77 266.394C370.403 266.437 368.962 266.199 367.764 265.513C361.537 261.944 350.607 249.46 345.197 244.082C339.682 249.749 326.053 264.757 319.223 266.91C317.175 266.759 315.957 265.669 314.506 264.314C311.992 261.965 304.561 255.798 304.838 252.474C305.279 247.171 323.834 231.075 328.317 226.384C321.135 219.303 312.603 212.192 306.416 204.263C305.345 202.891 304.568 201.812 304.895 199.997C305.752 195.23 313.941 189.035 317.817 186.493Z"/>
	<path fill="#EE4239" d="M265.221 511.631C270.535 513.067 286.871 531.162 291.51 535.966C294.595 532.194 312.915 513.029 316.421 512.333C317.788 512.062 319.173 512.768 320.297 513.51C323.758 515.796 330.672 522.249 330.953 526.54C330.972 526.817 330.98 527.914 330.841 528.267C329.967 530.484 310.816 548.728 307.721 551.955C313.583 557.555 326.134 568.331 330.201 574.446C330.977 575.612 331.179 576.518 330.804 577.888C329.6 582.291 321.854 588.96 317.931 591.269C317.664 591.279 317.397 591.307 317.13 591.3C311.511 591.145 296.096 573.18 291.458 568.355C286.48 573.285 270.987 590.543 265.575 592.188C263.873 591.837 262.625 590.855 261.354 589.722C258.073 586.798 252.243 582.14 252.083 577.397C252.037 576.02 252.456 574.836 253.223 573.706C257.822 566.929 268.634 558.266 274.669 551.87C269.405 546.322 254.896 534.036 252.004 528.243C251.342 526.917 251.29 525.876 251.835 524.494C253.571 520.092 261.021 513.672 265.221 511.631Z"/>
</svg>
